<?xml version="1.0" standalone="no"?>
<!DOCTYPE svg PUBLIC "-//W3C//DTD SVG 20010904//EN"
 "http://www.w3.org/TR/2001/REC-SVG-20010904/DTD/svg10.dtd">
<svg version="1.0" xmlns="http://www.w3.org/2000/svg"
 width="169.000000pt" height="132.000000pt" viewBox="0 0 169.000000 132.000000"
 preserveAspectRatio="xMidYMid meet">
<metadata>
Created by potrace 1.10, written by Peter Selinger 2001-2011
</metadata>
<g transform="translate(0.000000,132.000000) scale(0.100000,-0.100000)"
fill="#000000" stroke="none">
<path d="M1440 1035 c-63 -17 -128 -35 -144 -39 l-29 -7 41 -42 42 -43 -180
-180 -180 -179 -77 77 -78 78 -164 -164 -164 -164 24 -31 c13 -16 27 -30 31
-30 4 -1 67 60 140 135 l133 136 78 -82 79 -83 212 212 212 211 34 -35 c37
-38 50 -43 50 -20 0 18 66 261 75 275 9 14 -6 12 -135 -25z m66 -39 c5 -14
-23 -125 -36 -139 -4 -4 -19 -3 -33 4 -22 10 -31 8 -61 -9 l-34 -20 21 35 c20
34 20 38 4 64 -19 34 -16 37 63 61 69 21 70 21 76 4z m-642 -377 c35 -28 33
-40 -5 -26 -25 10 -35 9 -61 -6 -30 -17 -31 -17 -18 0 47 62 47 61 84 32z
m163 -106 l-37 -38 -32 33 c-18 17 -27 32 -21 32 7 0 15 -4 18 -10 9 -15 58
-12 81 5 33 25 30 16 -9 -22z"/>
<path d="M255 553 l0 -423 613 0 612 0 0 239 0 240 -40 -1 -40 0 0 -204 0
-204 -535 0 -535 0 0 355 0 356 340 -3 340 -3 0 35 0 35 -377 0 -378 0 0 -422z"/>
</g>
</svg>
