<svg xmlns="http://www.w3.org/2000/svg" xml:space="preserve" width="128" height="128" data-id="lg_WI7rPlWUmoL79uKZS6" data-version="1"><g data-padding="20"><g transform="translate(54.068 53.158)scale(.17736)"><path fill="#87c0cd" d="M-202.6 184.9q-4.11 0-7.17-.21-3.06-.22-6.08-.51v-50.11q3.38-.36 6.62-.54t7.42-.18q6.48 0 11.2 2.02 4.71 2.01 7.77 5.54t4.54 8.17q1.47 4.65 1.47 9.97 0 5.26-1.51 9.94t-4.64 8.24q-3.13 3.57-7.99 5.62t-11.63 2.05m.21-5.97q6.48 0 10.59-2.52 4.1-2.52 6.05-7.02 1.94-4.5 1.94-10.34 0-5.18-1.94-9.72-1.95-4.53-5.98-7.3-4.03-2.78-10.3-2.78-2.08 0-3.81.11t-3.17.25v38.96q1.51.21 3.17.28 1.65.08 3.45.08m49.9 6.26q-8.06 0-12.78-5.15t-4.72-14.43q0-5.62 2.13-10.05 2.12-4.43 5.94-6.98 3.81-2.56 8.85-2.56 5.4 0 8.97 2.34 3.56 2.34 5.36 6.3t1.8 8.71q0 2.52-.21 4.9h-26.21q.65 5.26 3.67 8.21t7.99 2.95q3.24 0 5.83-.68 2.6-.69 4.97-1.77l1.51 5.55q-2.59 1.15-5.83 1.9-3.24.76-7.27.76m-10.94-22.18h20.52q0-5.47-2.74-8.42t-7.56-2.95q-4.18 0-6.91 2.91-2.74 2.92-3.31 8.46m51.98 22.18q-3.24 0-6.08-1.19-2.85-1.19-4.72-2.77v3.1h-6.05v-53.28h6.48v19.72q1.44-1.65 4.21-3.2 2.78-1.55 6.59-1.55 4.32 0 8.1 2.27t6.09 6.55q2.3 4.29 2.3 10.41 0 4.46-1.44 8.13t-3.85 6.3-5.44 4.07q-3.02 1.44-6.19 1.44m-1.73-5.76q3.53 0 6.23-1.73t4.25-4.89q1.55-3.17 1.55-7.35 0-4.32-1.55-7.41-1.55-3.1-4.11-4.76-2.55-1.65-5.65-1.65-3.09 0-5.58 1.55-2.48 1.54-3.78 3.34v20.02q1.66 1.3 3.89 2.09t4.75.79m40.75 5.76q-5.4 0-8.53-3.56-3.13-3.57-3.13-10.19v-17.57h-6.48v-5.62h6.62l1.37-11.8h4.97v11.8h10.37v5.62h-10.37v18.07q0 4.18 1.76 5.83 1.77 1.66 4.22 1.66 1.8 0 3.42-.58 1.62-.57 2.98-1.36l1.8 5.18q-1.44.86-3.88 1.69-2.45.83-5.12.83m22.68-.85h-6.48v-30.46h-5.76v-5.62h5.76v-4.39q0-6.33 3.53-10.01 3.53-3.67 9.22-3.67 2.95 0 5.18.69 2.23.68 4.25 1.69l-1.94 5.47q-1.52-.79-3.24-1.44-1.73-.65-3.82-.65-3.02 0-4.86 1.91t-1.84 5.58v4.82h11.09v5.62h-11.09Zm24.34-.01h-6.48v-37.44h6.26v8.13q.94-2.37 2.52-4.43 1.59-2.05 3.96-3.31 2.38-1.26 5.55-1.26 1.08 0 2.16.11t1.8.32l-1.95 6.7q-1.36-.58-3.24-.58-2.66 0-5.07 1.52-2.41 1.51-3.96 4.68-1.55 3.16-1.55 8.06Zm35.06.86q-8.06 0-12.78-5.15-4.71-5.15-4.71-14.43 0-5.62 2.12-10.05 2.13-4.43 5.94-6.98 3.82-2.56 8.86-2.56 5.4 0 8.96 2.34 3.57 2.34 5.37 6.3t1.8 8.71q0 2.52-.22 4.9H-1.22q.65 5.26 3.67 8.21 3.03 2.95 8 2.95 3.24 0 5.83-.68 2.59-.69 4.97-1.77l1.51 5.55q-2.59 1.15-5.83 1.9-3.24.76-7.28.76m-10.94-22.18h20.52q0-5.47-2.74-8.42-2.73-2.95-7.56-2.95-4.17 0-6.91 2.91-2.73 2.92-3.31 8.46m50.11 22.18q-8.06 0-12.78-5.15-4.71-5.15-4.71-14.43 0-5.62 2.12-10.05t5.94-6.98q3.82-2.56 8.86-2.56 5.4 0 8.96 2.34t5.36 6.3 1.8 8.71q0 2.52-.21 4.9H37.95q.65 5.26 3.67 8.21 3.03 2.95 7.99 2.95 3.24 0 5.84-.68 2.59-.69 4.96-1.77l1.52 5.55q-2.6 1.15-5.84 1.9-3.24.76-7.27.76m-10.94-22.18H58.4q0-5.47-2.74-8.42-2.73-2.95-7.56-2.95-4.17 0-6.91 2.91-2.74 2.92-3.31 8.46m42.98 37.15h-6.48v-43.71q0-2.45-1.19-3.49-1.18-1.04-3.06-1.04l1.37-5.04q6.63 0 8.28 5.25.72-1.08 2.34-2.52t4.03-2.52q2.42-1.08 5.51-1.08 4.32 0 8.1 2.27t6.09 6.55q2.3 4.29 2.3 10.41 0 5.97-2.3 10.47-2.31 4.5-6.02 6.99-3.7 2.48-8.02 2.48-3.32 0-6.2-1.33t-4.75-3.06Zm9.65-20.74q4.9 0 7.96-3.85t3.06-10.12q0-4.32-1.55-7.41-1.55-3.1-4.11-4.76-2.55-1.65-5.65-1.65-3.09 0-5.58 1.55-2.48 1.54-3.78 3.34v18.44q1.87 1.94 4.32 3.2t5.33 1.26m38.02 5.77q-3.32 0-5.98-1.26t-4.21-4.07-1.55-7.27v-41.54h6.48v40.89q0 3.89 1.62 5.76t4.5 1.87q1.37 0 2.7-.32t2.27-.76l1.58 5.26q-1.29.58-3.2 1.01t-4.21.43m26.77 0q-4.68 0-8.5-2.38-3.81-2.37-6.08-6.73-2.27-4.35-2.27-10.26 0-5.61 2.27-10.08 2.27-4.46 6.26-7.09 4-2.63 9.18-2.63 3.24 0 5.87 1.12 2.63 1.11 4.57 2.77v-3.02h5.91v28.36q0 2.74 1.33 3.57t2.92.83l-1.37 5.04q-6.91 0-8.35-5.62-1.66 2.3-4.5 4.21-2.85 1.91-7.24 1.91m1.44-5.76q2.74 0 5.18-1.33 2.45-1.33 4.11-3.35v-20.09q-1.95-1.37-4.29-2.19-2.34-.83-4.93-.83-3.45 0-6.08 1.76-2.63 1.77-4.14 4.9t-1.51 7.31q0 4.03 1.51 7.16t4.17 4.9q2.67 1.76 5.98 1.76m35.15 4.9h-6.48v-37.44h6.26v6.26q2.02-3.02 5.15-5.08 3.13-2.05 7.45-2.05 6.34 0 9.47 3.82 3.13 3.81 3.13 10.08v24.41h-6.48v-23.69q0-4.03-1.91-6.48t-5.29-2.45q-3.31 0-6.26 2.34-2.96 2.34-5.04 5.51Zm42.62 0h-6.48v-37.44h6.26v6.26q2.02-3.02 5.15-5.08 3.13-2.05 7.45-2.05 6.34 0 9.47 3.82 3.13 3.81 3.13 10.08v24.41h-6.48v-23.69q0-4.03-1.9-6.48-1.91-2.45-5.3-2.45-3.31 0-6.26 2.34t-5.04 5.51Zm51.12.86q-8.06 0-12.78-5.15t-4.72-14.43q0-5.62 2.13-10.05 2.12-4.43 5.94-6.98 3.81-2.56 8.85-2.56 5.4 0 8.97 2.34 3.56 2.34 5.36 6.3t1.8 8.71q0 2.52-.21 4.9h-26.21q.65 5.26 3.67 8.21t7.99 2.95q3.24 0 5.83-.68 2.6-.69 4.97-1.77l1.51 5.55q-2.59 1.15-5.83 1.9-3.24.76-7.27.76m-10.94-22.18h20.52q0-5.47-2.74-8.42t-7.56-2.95q-4.18 0-6.91 2.91-2.74 2.92-3.31 8.46m41.61 21.32h-6.48v-37.44h6.27v8.13q.93-2.37 2.52-4.43 1.58-2.05 3.96-3.31 2.37-1.26 5.54-1.26 1.08 0 2.16.11t1.8.32l-1.94 6.7q-1.37-.58-3.24-.58-2.67 0-5.08 1.52-2.41 1.51-3.96 4.68-1.55 3.16-1.55 8.06Z"/><rect width="560" height="81.36" x="-624.5" y="-379.69" fill="none" rx="0" ry="0" transform="translate(400.5 501.19)"/><path fill="#fff" d="M126.39 11.97v22.62q0 12.66-4.4 23.3-4.4 10.63-12.13 18.32T91.49 88.25Q80.86 92.6 68.38 92.6H.52q-2.71 0-5.03-.97t-4.01-2.66q-1.7-1.69-2.66-4.01-.97-2.32-.97-5.03V-33.38q0-2.61.97-4.93.96-2.32 2.66-4.06 1.69-1.74 4.01-2.71 2.32-.96 5.03-.96h67.86q12.48 0 23.11 4.35 10.64 4.35 18.37 12.03 7.73 7.69 12.13 18.37 4.4 10.69 4.4 23.26m-25.13 22.62V11.97q0-7.35-2.37-13.44t-6.72-10.4q-4.35-4.3-10.4-6.67-6.04-2.37-13.39-2.37H12.99v88.37h55.39q7.35 0 13.39-2.37 6.05-2.37 10.4-6.67t6.72-10.34q2.37-6.05 2.37-13.49"/><rect width="163.28" height="223.74" x="-426.14" y="-450.88" fill="none" rx="0" ry="0" transform="translate(399.87 370.28)"/></g><path fill="transparent" stroke="transparent" stroke-width=".184" d="M12.5 37.974h103v52.052h-103z"/></g></svg>